<mxfile host="app.diagrams.net" modified="2023-07-18T09:43:49.561Z" agent="Mozilla/5.0 (Macintosh; Intel Mac OS X 10_15_7) AppleWebKit/537.36 (KHTML, like Gecko) Chrome/114.0.0.0 Safari/537.36" version="21.3.2" etag="53EGpv9j4X3C7yaY9c1G" type="github">
  <diagram name="第 1 页" id="zM504khZpwZO7LP0lU5R">
    <mxGraphModel>
      <root>
        <mxCell id="0" />
        <mxCell id="1" parent="0" />
      </root>
    </mxGraphModel>
  </diagram>
</mxfile>
